<mxfile host="app.diagrams.net" modified="2022-04-29T00:15:03.781Z" agent="5.0 (Windows NT 10.0; Win64; x64) AppleWebKit/537.36 (KHTML, like Gecko) Chrome/100.0.4896.127 Safari/537.36" etag="oJH9gIhL7kIcO3F81tjw" version="17.4.1" type="github">
  <diagram id="C5RBs43oDa-KdzZeNtuy" name="Page-1">
    <mxGraphModel dx="868" dy="482" grid="1" gridSize="10" guides="1" tooltips="1" connect="1" arrows="1" fold="1" page="1" pageScale="1" pageWidth="827" pageHeight="1169" math="0" shadow="0">
      <root>
        <mxCell id="WIyWlLk6GJQsqaUBKTNV-0" />
        <mxCell id="WIyWlLk6GJQsqaUBKTNV-1" parent="WIyWlLk6GJQsqaUBKTNV-0" />
        <mxCell id="ZvwIYPOZf6DgosU8lJz0-5" style="edgeStyle=orthogonalEdgeStyle;rounded=0;orthogonalLoop=1;jettySize=auto;html=1;entryX=0.111;entryY=0.375;entryDx=0;entryDy=0;entryPerimeter=0;" edge="1" parent="WIyWlLk6GJQsqaUBKTNV-1" source="ZvwIYPOZf6DgosU8lJz0-0" target="ZvwIYPOZf6DgosU8lJz0-3">
          <mxGeometry relative="1" as="geometry" />
        </mxCell>
        <mxCell id="ZvwIYPOZf6DgosU8lJz0-0" value="start" style="strokeWidth=2;html=1;shape=mxgraph.flowchart.terminator;whiteSpace=wrap;" vertex="1" parent="WIyWlLk6GJQsqaUBKTNV-1">
          <mxGeometry x="50" y="20" width="100" height="60" as="geometry" />
        </mxCell>
        <mxCell id="ZvwIYPOZf6DgosU8lJz0-6" style="edgeStyle=orthogonalEdgeStyle;rounded=0;orthogonalLoop=1;jettySize=auto;html=1;entryX=0.5;entryY=0;entryDx=0;entryDy=0;" edge="1" parent="WIyWlLk6GJQsqaUBKTNV-1" source="ZvwIYPOZf6DgosU8lJz0-2">
          <mxGeometry relative="1" as="geometry">
            <mxPoint x="695" y="180" as="targetPoint" />
          </mxGeometry>
        </mxCell>
        <mxCell id="ZvwIYPOZf6DgosU8lJz0-2" value="If user selects large pizza" style="strokeWidth=2;html=1;shape=mxgraph.flowchart.decision;whiteSpace=wrap;" vertex="1" parent="WIyWlLk6GJQsqaUBKTNV-1">
          <mxGeometry x="630" y="2.5" width="130" height="115" as="geometry" />
        </mxCell>
        <mxCell id="ZvwIYPOZf6DgosU8lJz0-4" style="edgeStyle=orthogonalEdgeStyle;rounded=0;orthogonalLoop=1;jettySize=auto;html=1;exitX=1;exitY=0.5;exitDx=0;exitDy=0;entryX=0;entryY=0.5;entryDx=0;entryDy=0;entryPerimeter=0;" edge="1" parent="WIyWlLk6GJQsqaUBKTNV-1" source="ZvwIYPOZf6DgosU8lJz0-3" target="ZvwIYPOZf6DgosU8lJz0-2">
          <mxGeometry relative="1" as="geometry">
            <Array as="points">
              <mxPoint x="345" y="10" />
              <mxPoint x="630" y="10" />
            </Array>
          </mxGeometry>
        </mxCell>
        <mxCell id="ZvwIYPOZf6DgosU8lJz0-8" style="edgeStyle=orthogonalEdgeStyle;rounded=0;orthogonalLoop=1;jettySize=auto;html=1;entryX=0.446;entryY=0.07;entryDx=0;entryDy=0;entryPerimeter=0;" edge="1" parent="WIyWlLk6GJQsqaUBKTNV-1" target="ZvwIYPOZf6DgosU8lJz0-12">
          <mxGeometry relative="1" as="geometry">
            <mxPoint x="70" y="190" as="targetPoint" />
            <mxPoint x="256" y="100" as="sourcePoint" />
            <Array as="points">
              <mxPoint x="256" y="120" />
              <mxPoint x="70" y="120" />
              <mxPoint x="70" y="198" />
            </Array>
          </mxGeometry>
        </mxCell>
        <mxCell id="ZvwIYPOZf6DgosU8lJz0-9" style="edgeStyle=orthogonalEdgeStyle;rounded=0;orthogonalLoop=1;jettySize=auto;html=1;entryX=0.346;entryY=0.183;entryDx=0;entryDy=0;entryPerimeter=0;" edge="1" parent="WIyWlLk6GJQsqaUBKTNV-1" source="ZvwIYPOZf6DgosU8lJz0-3" target="ZvwIYPOZf6DgosU8lJz0-15">
          <mxGeometry relative="1" as="geometry">
            <mxPoint x="400" y="190" as="targetPoint" />
            <mxPoint x="275" y="110" as="sourcePoint" />
            <Array as="points">
              <mxPoint x="275" y="120" />
              <mxPoint x="400" y="120" />
              <mxPoint x="400" y="221" />
            </Array>
          </mxGeometry>
        </mxCell>
        <mxCell id="ZvwIYPOZf6DgosU8lJz0-10" style="edgeStyle=orthogonalEdgeStyle;rounded=0;orthogonalLoop=1;jettySize=auto;html=1;entryX=0.5;entryY=0;entryDx=0;entryDy=0;entryPerimeter=0;" edge="1" parent="WIyWlLk6GJQsqaUBKTNV-1" source="ZvwIYPOZf6DgosU8lJz0-3" target="ZvwIYPOZf6DgosU8lJz0-13">
          <mxGeometry relative="1" as="geometry">
            <mxPoint x="180" y="190" as="targetPoint" />
            <Array as="points">
              <mxPoint x="293" y="120" />
              <mxPoint x="180" y="120" />
              <mxPoint x="180" y="190" />
            </Array>
          </mxGeometry>
        </mxCell>
        <mxCell id="ZvwIYPOZf6DgosU8lJz0-11" style="edgeStyle=orthogonalEdgeStyle;rounded=0;orthogonalLoop=1;jettySize=auto;html=1;entryX=0.454;entryY=0.035;entryDx=0;entryDy=0;entryPerimeter=0;" edge="1" parent="WIyWlLk6GJQsqaUBKTNV-1" source="ZvwIYPOZf6DgosU8lJz0-3" target="ZvwIYPOZf6DgosU8lJz0-14">
          <mxGeometry relative="1" as="geometry">
            <mxPoint x="292.5" y="190" as="targetPoint" />
          </mxGeometry>
        </mxCell>
        <mxCell id="ZvwIYPOZf6DgosU8lJz0-16" style="edgeStyle=orthogonalEdgeStyle;rounded=0;orthogonalLoop=1;jettySize=auto;html=1;" edge="1" parent="WIyWlLk6GJQsqaUBKTNV-1" source="ZvwIYPOZf6DgosU8lJz0-3">
          <mxGeometry relative="1" as="geometry">
            <mxPoint x="430" y="60" as="targetPoint" />
          </mxGeometry>
        </mxCell>
        <mxCell id="ZvwIYPOZf6DgosU8lJz0-3" value="user picks pizza &lt;br&gt;sizes and # &lt;br&gt;of toppings" style="shape=parallelogram;html=1;strokeWidth=2;perimeter=parallelogramPerimeter;whiteSpace=wrap;rounded=1;arcSize=12;size=0.23;" vertex="1" parent="WIyWlLk6GJQsqaUBKTNV-1">
          <mxGeometry x="225" y="20" width="135" height="80" as="geometry" />
        </mxCell>
        <mxCell id="ZvwIYPOZf6DgosU8lJz0-25" style="edgeStyle=orthogonalEdgeStyle;rounded=0;orthogonalLoop=1;jettySize=auto;html=1;entryX=0.608;entryY=0.029;entryDx=0;entryDy=0;entryPerimeter=0;" edge="1" parent="WIyWlLk6GJQsqaUBKTNV-1" source="ZvwIYPOZf6DgosU8lJz0-12" target="ZvwIYPOZf6DgosU8lJz0-24">
          <mxGeometry relative="1" as="geometry" />
        </mxCell>
        <mxCell id="ZvwIYPOZf6DgosU8lJz0-12" value="If user selects&amp;nbsp;&lt;br&gt;1 topping" style="strokeWidth=2;html=1;shape=mxgraph.flowchart.decision;whiteSpace=wrap;" vertex="1" parent="WIyWlLk6GJQsqaUBKTNV-1">
          <mxGeometry x="10" y="210" width="130" height="115" as="geometry" />
        </mxCell>
        <mxCell id="ZvwIYPOZf6DgosU8lJz0-26" style="edgeStyle=orthogonalEdgeStyle;rounded=0;orthogonalLoop=1;jettySize=auto;html=1;entryX=0.558;entryY=0.029;entryDx=0;entryDy=0;entryPerimeter=0;" edge="1" parent="WIyWlLk6GJQsqaUBKTNV-1" source="ZvwIYPOZf6DgosU8lJz0-13" target="ZvwIYPOZf6DgosU8lJz0-21">
          <mxGeometry relative="1" as="geometry" />
        </mxCell>
        <mxCell id="ZvwIYPOZf6DgosU8lJz0-13" value="If user selects&amp;nbsp;&lt;br&gt;2 toppings" style="strokeWidth=2;html=1;shape=mxgraph.flowchart.decision;whiteSpace=wrap;" vertex="1" parent="WIyWlLk6GJQsqaUBKTNV-1">
          <mxGeometry x="120" y="190" width="130" height="110" as="geometry" />
        </mxCell>
        <mxCell id="ZvwIYPOZf6DgosU8lJz0-27" style="edgeStyle=orthogonalEdgeStyle;rounded=0;orthogonalLoop=1;jettySize=auto;html=1;" edge="1" parent="WIyWlLk6GJQsqaUBKTNV-1" source="ZvwIYPOZf6DgosU8lJz0-14" target="ZvwIYPOZf6DgosU8lJz0-22">
          <mxGeometry relative="1" as="geometry" />
        </mxCell>
        <mxCell id="ZvwIYPOZf6DgosU8lJz0-14" value="If user selects&amp;nbsp;&lt;br&gt;3 toppings" style="strokeWidth=2;html=1;shape=mxgraph.flowchart.decision;whiteSpace=wrap;" vertex="1" parent="WIyWlLk6GJQsqaUBKTNV-1">
          <mxGeometry x="240" y="170" width="130" height="115" as="geometry" />
        </mxCell>
        <mxCell id="ZvwIYPOZf6DgosU8lJz0-28" value="" style="edgeStyle=orthogonalEdgeStyle;rounded=0;orthogonalLoop=1;jettySize=auto;html=1;" edge="1" parent="WIyWlLk6GJQsqaUBKTNV-1" source="ZvwIYPOZf6DgosU8lJz0-15" target="ZvwIYPOZf6DgosU8lJz0-23">
          <mxGeometry relative="1" as="geometry" />
        </mxCell>
        <mxCell id="ZvwIYPOZf6DgosU8lJz0-15" value="If user selects&amp;nbsp;&lt;br&gt;4 toppings" style="strokeWidth=2;html=1;shape=mxgraph.flowchart.decision;whiteSpace=wrap;" vertex="1" parent="WIyWlLk6GJQsqaUBKTNV-1">
          <mxGeometry x="360" y="200" width="130" height="115" as="geometry" />
        </mxCell>
        <mxCell id="ZvwIYPOZf6DgosU8lJz0-19" value="" style="edgeStyle=orthogonalEdgeStyle;rounded=0;orthogonalLoop=1;jettySize=auto;html=1;exitX=0.615;exitY=0.89;exitDx=0;exitDy=0;exitPerimeter=0;" edge="1" parent="WIyWlLk6GJQsqaUBKTNV-1" source="ZvwIYPOZf6DgosU8lJz0-17" target="ZvwIYPOZf6DgosU8lJz0-18">
          <mxGeometry relative="1" as="geometry">
            <Array as="points">
              <mxPoint x="500" y="98" />
              <mxPoint x="500" y="139" />
              <mxPoint x="520" y="139" />
            </Array>
          </mxGeometry>
        </mxCell>
        <mxCell id="ZvwIYPOZf6DgosU8lJz0-17" value="If user selects extra large pizza" style="strokeWidth=2;html=1;shape=mxgraph.flowchart.decision;whiteSpace=wrap;" vertex="1" parent="WIyWlLk6GJQsqaUBKTNV-1">
          <mxGeometry x="430" y="11.25" width="130" height="97.5" as="geometry" />
        </mxCell>
        <mxCell id="ZvwIYPOZf6DgosU8lJz0-29" style="edgeStyle=orthogonalEdgeStyle;rounded=0;orthogonalLoop=1;jettySize=auto;html=1;entryX=1;entryY=0.75;entryDx=0;entryDy=0;" edge="1" parent="WIyWlLk6GJQsqaUBKTNV-1" source="ZvwIYPOZf6DgosU8lJz0-18" target="ZvwIYPOZf6DgosU8lJz0-32">
          <mxGeometry relative="1" as="geometry">
            <mxPoint x="530" y="500" as="targetPoint" />
            <Array as="points">
              <mxPoint x="530" y="552" />
            </Array>
          </mxGeometry>
        </mxCell>
        <mxCell id="ZvwIYPOZf6DgosU8lJz0-18" value="extra large &lt;br&gt;pizza is $10.00" style="shape=parallelogram;html=1;strokeWidth=2;perimeter=parallelogramPerimeter;whiteSpace=wrap;rounded=1;arcSize=12;size=0.23;" vertex="1" parent="WIyWlLk6GJQsqaUBKTNV-1">
          <mxGeometry x="470" y="170" width="120" height="70" as="geometry" />
        </mxCell>
        <mxCell id="ZvwIYPOZf6DgosU8lJz0-36" style="edgeStyle=orthogonalEdgeStyle;rounded=0;orthogonalLoop=1;jettySize=auto;html=1;" edge="1" parent="WIyWlLk6GJQsqaUBKTNV-1" source="ZvwIYPOZf6DgosU8lJz0-20" target="ZvwIYPOZf6DgosU8lJz0-32">
          <mxGeometry relative="1" as="geometry">
            <Array as="points">
              <mxPoint x="690" y="550" />
            </Array>
          </mxGeometry>
        </mxCell>
        <mxCell id="ZvwIYPOZf6DgosU8lJz0-20" value="large &lt;br&gt;pizza is $6.00&lt;span style=&quot;color: rgba(0 , 0 , 0 , 0) ; font-family: monospace ; font-size: 0px&quot;&gt;%3CmxGraphModel%3E%3Croot%3E%3CmxCell%20id%3D%220%22%2F%3E%3CmxCell%20id%3D%221%22%20parent%3D%220%22%2F%3E%3CmxCell%20id%3D%222%22%20value%3D%22extra%20large%20%26lt%3Bbr%26gt%3Bpizza%20is%20%2410.00%22%20style%3D%22shape%3Dparallelogram%3Bhtml%3D1%3BstrokeWidth%3D2%3Bperimeter%3DparallelogramPerimeter%3BwhiteSpace%3Dwrap%3Brounded%3D1%3BarcSize%3D12%3Bsize%3D0.23%3B%22%20vertex%3D%221%22%20parent%3D%221%22%3E%3CmxGeometry%20x%3D%22470%22%20y%3D%22170%22%20width%3D%22120%22%20height%3D%2270%22%20as%3D%22geometry%22%2F%3E%3C%2FmxCell%3E%3C%2Froot%3E%3C%2FmxGraphModel%3E&lt;/span&gt;" style="shape=parallelogram;html=1;strokeWidth=2;perimeter=parallelogramPerimeter;whiteSpace=wrap;rounded=1;arcSize=12;size=0.23;" vertex="1" parent="WIyWlLk6GJQsqaUBKTNV-1">
          <mxGeometry x="630" y="180" width="120" height="70" as="geometry" />
        </mxCell>
        <mxCell id="ZvwIYPOZf6DgosU8lJz0-34" style="edgeStyle=orthogonalEdgeStyle;rounded=0;orthogonalLoop=1;jettySize=auto;html=1;entryX=0;entryY=0.75;entryDx=0;entryDy=0;" edge="1" parent="WIyWlLk6GJQsqaUBKTNV-1" source="ZvwIYPOZf6DgosU8lJz0-21" target="ZvwIYPOZf6DgosU8lJz0-32">
          <mxGeometry relative="1" as="geometry">
            <Array as="points">
              <mxPoint x="190" y="557" />
            </Array>
          </mxGeometry>
        </mxCell>
        <mxCell id="ZvwIYPOZf6DgosU8lJz0-21" value="extra large &lt;br&gt;pizza is $10.00" style="shape=parallelogram;html=1;strokeWidth=2;perimeter=parallelogramPerimeter;whiteSpace=wrap;rounded=1;arcSize=12;size=0.23;" vertex="1" parent="WIyWlLk6GJQsqaUBKTNV-1">
          <mxGeometry x="120" y="360" width="120" height="70" as="geometry" />
        </mxCell>
        <mxCell id="ZvwIYPOZf6DgosU8lJz0-33" style="edgeStyle=orthogonalEdgeStyle;rounded=0;orthogonalLoop=1;jettySize=auto;html=1;entryX=0;entryY=0.75;entryDx=0;entryDy=0;" edge="1" parent="WIyWlLk6GJQsqaUBKTNV-1" source="ZvwIYPOZf6DgosU8lJz0-22" target="ZvwIYPOZf6DgosU8lJz0-32">
          <mxGeometry relative="1" as="geometry">
            <Array as="points">
              <mxPoint x="305" y="557" />
            </Array>
          </mxGeometry>
        </mxCell>
        <mxCell id="ZvwIYPOZf6DgosU8lJz0-22" value="extra large &lt;br&gt;pizza is $10.00" style="shape=parallelogram;html=1;strokeWidth=2;perimeter=parallelogramPerimeter;whiteSpace=wrap;rounded=1;arcSize=12;size=0.23;" vertex="1" parent="WIyWlLk6GJQsqaUBKTNV-1">
          <mxGeometry x="245" y="350" width="120" height="70" as="geometry" />
        </mxCell>
        <mxCell id="ZvwIYPOZf6DgosU8lJz0-30" style="edgeStyle=orthogonalEdgeStyle;rounded=0;orthogonalLoop=1;jettySize=auto;html=1;" edge="1" parent="WIyWlLk6GJQsqaUBKTNV-1" source="ZvwIYPOZf6DgosU8lJz0-23" target="ZvwIYPOZf6DgosU8lJz0-32">
          <mxGeometry relative="1" as="geometry">
            <mxPoint x="430" y="480" as="targetPoint" />
          </mxGeometry>
        </mxCell>
        <mxCell id="ZvwIYPOZf6DgosU8lJz0-23" value="extra large &lt;br&gt;pizza is $10.00" style="shape=parallelogram;html=1;strokeWidth=2;perimeter=parallelogramPerimeter;whiteSpace=wrap;rounded=1;arcSize=12;size=0.23;" vertex="1" parent="WIyWlLk6GJQsqaUBKTNV-1">
          <mxGeometry x="365" y="350" width="120" height="70" as="geometry" />
        </mxCell>
        <mxCell id="ZvwIYPOZf6DgosU8lJz0-35" style="edgeStyle=orthogonalEdgeStyle;rounded=0;orthogonalLoop=1;jettySize=auto;html=1;entryX=0;entryY=0.75;entryDx=0;entryDy=0;" edge="1" parent="WIyWlLk6GJQsqaUBKTNV-1" source="ZvwIYPOZf6DgosU8lJz0-24" target="ZvwIYPOZf6DgosU8lJz0-32">
          <mxGeometry relative="1" as="geometry">
            <Array as="points">
              <mxPoint x="80" y="557" />
            </Array>
          </mxGeometry>
        </mxCell>
        <mxCell id="ZvwIYPOZf6DgosU8lJz0-24" value="extra large &lt;br&gt;pizza is $10.00" style="shape=parallelogram;html=1;strokeWidth=2;perimeter=parallelogramPerimeter;whiteSpace=wrap;rounded=1;arcSize=12;size=0.23;" vertex="1" parent="WIyWlLk6GJQsqaUBKTNV-1">
          <mxGeometry x="10" y="370" width="120" height="70" as="geometry" />
        </mxCell>
        <mxCell id="ZvwIYPOZf6DgosU8lJz0-38" style="edgeStyle=orthogonalEdgeStyle;rounded=0;orthogonalLoop=1;jettySize=auto;html=1;" edge="1" parent="WIyWlLk6GJQsqaUBKTNV-1" source="ZvwIYPOZf6DgosU8lJz0-32">
          <mxGeometry relative="1" as="geometry">
            <mxPoint x="414" y="640" as="targetPoint" />
          </mxGeometry>
        </mxCell>
        <mxCell id="ZvwIYPOZf6DgosU8lJz0-32" value="show user the cost&lt;br&gt;&amp;nbsp;of their pizza" style="shape=parallelogram;html=1;strokeWidth=2;perimeter=parallelogramPerimeter;whiteSpace=wrap;rounded=1;arcSize=12;size=0.23;" vertex="1" parent="WIyWlLk6GJQsqaUBKTNV-1">
          <mxGeometry x="319" y="485" width="190" height="100" as="geometry" />
        </mxCell>
        <mxCell id="ZvwIYPOZf6DgosU8lJz0-39" value="stop" style="strokeWidth=2;html=1;shape=mxgraph.flowchart.terminator;whiteSpace=wrap;" vertex="1" parent="WIyWlLk6GJQsqaUBKTNV-1">
          <mxGeometry x="364" y="640" width="100" height="60" as="geometry" />
        </mxCell>
      </root>
    </mxGraphModel>
  </diagram>
</mxfile>
